REM DIRINDEX 1\2,1\3,1\4
REM DIRNAME cjc105,folder01,folder02,folder03
TITLE ""
FILE "DISC1Track07.mp3" MP3
  TRACK 01 AUDIO
    TITLE "0:"
    INDEX 01 00:00:00
  TRACK 02 AUDIO
    TITLE "4:cjc105_0454"
    INDEX 01 00:00:11
  TRACK 03 AUDIO
    TITLE "0:"
    INDEX 01 00:07:56
  TRACK 04 AUDIO
    TITLE "2:cjc105_0455"
    INDEX 01 00:08:23
  TRACK 05 AUDIO
    TITLE "2:cjc105_0456"
    INDEX 01 00:11:70
  TRACK 06 AUDIO
    TITLE "2:cjc105_0457"
    INDEX 01 00:14:66
  TRACK 07 AUDIO
    TITLE "2:cjc105_0458"
    INDEX 01 00:17:74
  TRACK 08 AUDIO
    TITLE "2:cjc105_0459"
    INDEX 01 00:20:65
  TRACK 09 AUDIO
    TITLE "2:cjc105_0460"
    INDEX 01 00:23:69
  TRACK 10 AUDIO
    TITLE "2:cjc105_0461"
    INDEX 01 00:26:73
  TRACK 11 AUDIO
    TITLE "2:cjc105_0462"
    INDEX 01 00:29:68
  TRACK 12 AUDIO
    TITLE "2:cjc105_0463"
    INDEX 01 00:32:56
  TRACK 13 AUDIO
    TITLE "2:cjc105_0464"
    INDEX 01 00:35:49
  TRACK 14 AUDIO
    TITLE "2:cjc105_0465"
    INDEX 01 00:38:43
  TRACK 15 AUDIO
    TITLE "2:cjc105_0466"
    INDEX 01 00:41:36
  TRACK 16 AUDIO
    TITLE "2:cjc105_0467"
    INDEX 01 00:44:46
  TRACK 17 AUDIO
    TITLE "2:cjc105_0468"
    INDEX 01 00:47:68
  TRACK 18 AUDIO
    TITLE "2:cjc105_0469"
    INDEX 01 00:51:07
  TRACK 19 AUDIO
    TITLE "2:cjc105_0470"
    INDEX 01 00:54:19
  TRACK 20 AUDIO
    TITLE "2:cjc105_0471"
    INDEX 01 00:57:43
  TRACK 21 AUDIO
    TITLE "2:cjc105_0472"
    INDEX 01 01:00:68
  TRACK 22 AUDIO
    TITLE "2:cjc105_0473"
    INDEX 01 01:04:19
  TRACK 23 AUDIO
    TITLE "2:cjc105_0474"
    INDEX 01 01:07:23
  TRACK 24 AUDIO
    TITLE "2:cjc105_0475"
    INDEX 01 01:10:28
  TRACK 25 AUDIO
    TITLE "2:cjc105_0476"
    INDEX 01 01:13:44
  TRACK 26 AUDIO
    TITLE "2:cjc105_0477"
    INDEX 01 01:16:28
  TRACK 27 AUDIO
    TITLE "2:cjc105_0478"
    INDEX 01 01:19:42
  TRACK 28 AUDIO
    TITLE "2:cjc105_0479"
    INDEX 01 01:22:35
  TRACK 29 AUDIO
    TITLE "2:cjc105_0480"
    INDEX 01 01:25:33
  TRACK 30 AUDIO
    TITLE "2:cjc105_0481"
    INDEX 01 01:28:37
  TRACK 31 AUDIO
    TITLE "2:cjc105_0482"
    INDEX 01 01:31:57
  TRACK 32 AUDIO
    TITLE "2:cjc105_0483"
    INDEX 01 01:34:54
  TRACK 33 AUDIO
    TITLE "2:cjc105_0484"
    INDEX 01 01:37:71
  TRACK 34 AUDIO
    TITLE "2:cjc105_0485"
    INDEX 01 01:42:04
  TRACK 35 AUDIO
    TITLE "2:cjc105_0486"
    INDEX 01 01:45:08
  TRACK 36 AUDIO
    TITLE "2:cjc105_0487"
    INDEX 01 01:48:60
  TRACK 37 AUDIO
    TITLE "2:cjc105_0488"
    INDEX 01 01:51:46
  TRACK 38 AUDIO
    TITLE "2:cjc105_0489"
    INDEX 01 01:54:44
  TRACK 39 AUDIO
    TITLE "2:cjc105_0490"
    INDEX 01 01:57:57
  TRACK 40 AUDIO
    TITLE "2:cjc105_0491"
    INDEX 01 02:00:74
  TRACK 41 AUDIO
    TITLE "2:cjc105_0492"
    INDEX 01 02:03:67
  TRACK 42 AUDIO
    TITLE "2:cjc105_0493"
    INDEX 01 02:06:71
  TRACK 43 AUDIO
    TITLE "2:cjc105_0494"
    INDEX 01 02:10:10
  TRACK 44 AUDIO
    TITLE "2:cjc105_0495"
    INDEX 01 02:12:58
  TRACK 45 AUDIO
    TITLE "2:cjc105_0496"
    INDEX 01 02:15:72
  TRACK 46 AUDIO
    TITLE "2:cjc105_0497"
    INDEX 01 02:19:01
  TRACK 47 AUDIO
    TITLE "2:cjc105_0498"
    INDEX 01 02:22:37
  TRACK 48 AUDIO
    TITLE "2:cjc105_0499"
    INDEX 01 02:25:61
  TRACK 49 AUDIO
    TITLE "2:cjc105_0500"
    INDEX 01 02:29:13
  TRACK 50 AUDIO
    TITLE "2:cjc105_0501"
    INDEX 01 02:32:24
  TRACK 51 AUDIO
    TITLE "2:cjc105_0502"
    INDEX 01 02:36:08
  TRACK 52 AUDIO
    TITLE "2:cjc105_0503"
    INDEX 01 02:38:67
  TRACK 53 AUDIO
    TITLE "2:cjc105_0504"
    INDEX 01 02:42:18
  TRACK 54 AUDIO
    TITLE "2:cjc105_0505"
    INDEX 01 02:45:09
  TRACK 55 AUDIO
    TITLE "2:cjc105_0506"
    INDEX 01 02:48:44
  TRACK 56 AUDIO
    TITLE "2:cjc105_0507"
    INDEX 01 02:51:29
  TRACK 57 AUDIO
    TITLE "2:cjc105_0508"
    INDEX 01 02:54:23
  TRACK 58 AUDIO
    TITLE "2:cjc105_0509"
    INDEX 01 02:57:45
  TRACK 59 AUDIO
    TITLE "2:cjc105_0510"
    INDEX 01 03:00:22
  TRACK 60 AUDIO
    TITLE "2:cjc105_0511"
    INDEX 01 03:03:38
  TRACK 61 AUDIO
    TITLE "2:cjc105_0512"
    INDEX 01 03:07:38
  TRACK 62 AUDIO
    TITLE "2:cjc105_0513"
    INDEX 01 03:10:52
  TRACK 63 AUDIO
    TITLE "2:cjc105_0514"
    INDEX 01 03:14:14
  TRACK 64 AUDIO
    TITLE "2:cjc105_0515"
    INDEX 01 03:17:56
  TRACK 65 AUDIO
    TITLE "2:cjc105_0516"
    INDEX 01 03:20:73
  TRACK 66 AUDIO
    TITLE "2:cjc105_0517"
    INDEX 01 03:23:68
  TRACK 67 AUDIO
    TITLE "2:cjc105_0518"
    INDEX 01 03:27:07
  TRACK 68 AUDIO
    TITLE "2:cjc105_0519"
    INDEX 01 03:30:31
  TRACK 69 AUDIO
    TITLE "2:cjc105_0520"
    INDEX 01 03:33:66
  TRACK 70 AUDIO
    TITLE "2:cjc105_0521"
    INDEX 01 03:36:69
  TRACK 71 AUDIO
    TITLE "2:cjc105_0522"
    INDEX 01 03:40:29
  TRACK 72 AUDIO
    TITLE "2:cjc105_0523"
    INDEX 01 03:43:71
  TRACK 73 AUDIO
    TITLE "2:cjc105_0524"
    INDEX 01 03:47:06
  TRACK 74 AUDIO
    TITLE "2:cjc105_0525"
    INDEX 01 03:49:73
  TRACK 75 AUDIO
    TITLE "0:"
    INDEX 01 03:52:60
